<svg xmlns="http://www.w3.org/2000/svg" width="71.428" height="71.428" viewBox="0 0 71.428 71.428"><defs><style>.a{fill:#889094;}</style></defs><path class="a" d="M35.714,71.428a35.71,35.71,0,1,1,27.308-12.7,36.088,36.088,0,0,1-4.214,4.225,35.725,35.725,0,0,1-23.094,8.471Zm0-66.964a31.252,31.252,0,0,0-23.9,51.389,31.615,31.615,0,0,0,3.69,3.7,31.252,31.252,0,0,0,40.412,0,31.614,31.614,0,0,0,3.691-3.7,31.251,31.251,0,0,0-23.9-51.388Z"/><path class="a" d="M173.393,90.785a13.393,13.393,0,1,1,13.393-13.393A13.408,13.408,0,0,1,173.393,90.785Zm0-22.321a8.928,8.928,0,1,0,8.928,8.928A8.938,8.938,0,0,0,173.393,68.464Z" transform="translate(-137.679 -55.072)"/><path class="a" d="M126.205,256.238a2.234,2.234,0,0,1-2.167-2.776,20.107,20.107,0,0,0-19.191-25h-.588a20.107,20.107,0,0,0-19.191,25,2.232,2.232,0,1,1-4.33,1.087A24.56,24.56,0,0,1,104.205,224h.031l.317,0h.348a24.572,24.572,0,0,1,23.467,30.547A2.233,2.233,0,0,1,126.205,256.238Z" transform="translate(-68.839 -192.75)"/></svg>